<svg width="994" height="586" viewBox="0 0 994 586" fill="none" xmlns="http://www.w3.org/2000/svg">
<g clip-path="url(#clip0_54_3)">
<path d="M164.187 139.228C171.448 122.224 195.552 122.224 202.813 139.228L232.05 207.697C235.353 215.432 242.952 220.45 251.363 220.45H330.839C352.531 220.45 359.984 249.333 340.999 259.828L287.469 289.422C278.04 294.635 274.086 306.138 278.317 316.047L300.872 368.868C308.719 387.246 288.887 405.162 271.399 395.493L193.66 352.517C187.338 349.021 179.662 349.021 173.34 352.517L95.6013 395.493C78.1128 405.162 58.2806 387.246 66.128 368.868L88.6833 316.047C92.9145 306.138 88.9601 294.635 79.5306 289.422L26.0007 259.828C7.01618 249.333 14.4685 220.45 36.161 220.45H115.637C124.048 220.45 131.647 215.432 134.95 207.697L164.187 139.228Z" fill="#EA91DA"/>
<path d="M134.64 314C129.52 314 125.712 312.656 123.216 309.968C120.72 307.28 119.472 303.856 119.472 299.696V275.504H106.032V264.464H114.768C116.88 264.464 118.384 264.048 119.28 263.216C120.176 262.384 120.624 260.848 120.624 258.608V246.992H133.68V264.464H152.976V275.504H133.68V302.96H152.976V314H134.64ZM191.435 258.128C188.235 258.128 185.995 257.488 184.715 256.208C183.499 254.864 182.891 253.264 182.891 251.408V248.624C182.891 246.704 183.499 245.104 184.715 243.824C185.995 242.544 188.235 241.904 191.435 241.904C194.635 241.904 196.843 242.544 198.059 243.824C199.339 245.104 199.979 246.704 199.979 248.624V251.408C199.979 253.264 199.339 254.864 198.059 256.208C196.843 257.488 194.635 258.128 191.435 258.128ZM168.587 302.96H184.331V275.504H168.587V264.464H198.539V302.96H213.131V314H168.587V302.96ZM220.005 314V264.464H231.429V271.76H232.101C232.869 269.456 233.957 267.472 235.365 265.808C236.837 264.144 238.885 263.312 241.509 263.312C246.309 263.312 249.253 266.128 250.341 271.76H250.917C251.301 270.608 251.781 269.52 252.357 268.496C252.933 267.472 253.637 266.576 254.469 265.808C255.301 265.04 256.293 264.432 257.445 263.984C258.597 263.536 259.941 263.312 261.477 263.312C268.389 263.312 271.845 268.4 271.845 278.576V314H260.421V280.016C260.421 277.712 260.005 276.112 259.173 275.216C258.405 274.256 257.381 273.776 256.101 273.776C254.885 273.776 253.829 274.192 252.933 275.024C252.101 275.792 251.685 277.008 251.685 278.672V314H240.165V280.016C240.165 277.712 239.781 276.112 239.013 275.216C238.309 274.256 237.317 273.776 236.037 273.776C234.757 273.776 233.669 274.192 232.773 275.024C231.877 275.792 231.429 277.008 231.429 278.672V314H220.005ZM304.832 315.152C296.512 315.152 290.208 312.848 285.92 308.24C281.632 303.632 279.488 297.36 279.488 289.424C279.488 285.392 280.032 281.776 281.12 278.576C282.272 275.312 283.872 272.56 285.92 270.32C288.032 268.016 290.56 266.288 293.504 265.136C296.512 263.92 299.872 263.312 303.584 263.312C307.296 263.312 310.624 263.92 313.568 265.136C316.512 266.288 319.008 267.952 321.056 270.128C323.104 272.304 324.672 274.96 325.76 278.096C326.912 281.168 327.488 284.624 327.488 288.464V292.688H293.6V293.552C293.6 296.752 294.592 299.344 296.576 301.328C298.56 303.248 301.472 304.208 305.312 304.208C308.256 304.208 310.784 303.664 312.896 302.576C315.008 301.424 316.832 299.92 318.368 298.064L326.048 306.416C324.128 308.784 321.44 310.832 317.984 312.56C314.528 314.288 310.144 315.152 304.832 315.152ZM303.68 273.488C300.608 273.488 298.144 274.448 296.288 276.368C294.496 278.224 293.6 280.752 293.6 283.952V284.72H313.568V283.952C313.568 280.688 312.672 278.128 310.88 276.272C309.152 274.416 306.752 273.488 303.68 273.488ZM339.354 302.96H350.778V275.504H339.354V264.464H364.986V278.48H365.658C366.106 276.688 366.714 274.96 367.482 273.296C368.314 271.568 369.338 270.064 370.554 268.784C371.834 267.44 373.37 266.384 375.162 265.616C376.954 264.848 379.066 264.464 381.498 264.464H386.202V277.52H375.642C372.122 277.52 369.466 278.576 367.674 280.688C365.882 282.736 364.986 285.264 364.986 288.272V302.96H381.306V314H339.354V302.96ZM403.253 291.536V277.904H433.973V291.536H403.253ZM503.343 318.992C503.343 324.24 501.135 328.112 496.719 330.608C492.303 333.104 485.359 334.352 475.887 334.352C471.151 334.352 467.247 334.064 464.175 333.488C461.103 332.976 458.639 332.208 456.783 331.184C454.991 330.16 453.711 328.944 452.943 327.536C452.239 326.128 451.887 324.592 451.887 322.928C451.887 320.112 452.719 317.968 454.383 316.496C456.047 315.088 458.383 314 461.391 313.232V312.656C459.279 312.016 457.583 311.12 456.303 309.968C455.087 308.752 454.479 307.056 454.479 304.88C454.479 302.448 455.279 300.656 456.879 299.504C458.543 298.352 460.719 297.456 463.407 296.816V296.24C460.463 294.832 458.159 292.848 456.495 290.288C454.895 287.728 454.095 284.624 454.095 280.976C454.095 278.096 454.607 275.568 455.631 273.392C456.655 271.152 458.095 269.296 459.951 267.824C461.871 266.352 464.143 265.232 466.767 264.464C469.391 263.696 472.335 263.312 475.599 263.312C478.735 263.312 481.647 263.664 484.335 264.368V261.68C484.335 259.76 485.007 258.16 486.351 256.88C487.695 255.6 489.551 254.96 491.919 254.96H500.655V265.328H488.751V266.192C491.439 267.6 493.519 269.552 494.991 272.048C496.527 274.48 497.295 277.456 497.295 280.976C497.295 283.856 496.783 286.384 495.759 288.56C494.735 290.736 493.263 292.592 491.343 294.128C489.423 295.6 487.119 296.72 484.431 297.488C481.807 298.256 478.863 298.64 475.599 298.64C474.127 298.64 472.719 298.576 471.375 298.448C470.031 298.256 468.751 298 467.535 297.68C466.831 298.064 466.223 298.544 465.711 299.12C465.263 299.696 465.039 300.432 465.039 301.328C465.039 302.096 465.231 302.704 465.615 303.152C465.999 303.6 466.511 303.952 467.151 304.208C467.855 304.4 468.655 304.528 469.551 304.592C470.447 304.656 471.375 304.688 472.335 304.688H483.663C487.183 304.688 490.191 305.04 492.687 305.744C495.183 306.448 497.231 307.44 498.831 308.72C500.431 310 501.583 311.504 502.287 313.232C502.991 314.96 503.343 316.88 503.343 318.992ZM489.903 320.048C489.903 318.768 489.391 317.744 488.367 316.976C487.343 316.272 485.391 315.92 482.511 315.92H465.519C464.239 317.008 463.599 318.352 463.599 319.952C463.599 321.488 464.239 322.736 465.519 323.696C466.863 324.72 469.103 325.232 472.239 325.232H480.591C483.855 325.232 486.223 324.784 487.695 323.888C489.167 322.992 489.903 321.712 489.903 320.048ZM475.599 289.616C478.479 289.616 480.559 288.912 481.839 287.504C483.183 286.096 483.855 284.304 483.855 282.128V279.824C483.855 277.648 483.183 275.856 481.839 274.448C480.559 273.04 478.479 272.336 475.599 272.336C472.783 272.336 470.735 273.04 469.455 274.448C468.175 275.856 467.535 277.648 467.535 279.824V282.128C467.535 284.304 468.175 286.096 469.455 287.504C470.735 288.912 472.783 289.616 475.599 289.616ZM542.09 304.976H541.514C540.426 307.792 538.698 310.192 536.33 312.176C534.026 314.16 530.89 315.152 526.922 315.152C524.554 315.152 522.378 314.768 520.394 314C518.41 313.168 516.714 311.952 515.306 310.352C513.898 308.752 512.778 306.8 511.946 304.496C511.178 302.192 510.794 299.536 510.794 296.528V264.464H525.002V294.608C525.002 301.008 527.786 304.208 533.354 304.208C534.442 304.208 535.498 304.08 536.522 303.824C537.61 303.504 538.538 303.056 539.306 302.48C540.138 301.84 540.81 301.072 541.322 300.176C541.834 299.28 542.09 298.224 542.09 297.008V264.464H556.298V314H542.09V304.976ZM603.78 264.464H618.276L594.948 321.968C593.476 325.616 591.524 328.4 589.092 330.32C586.66 332.24 583.332 333.2 579.108 333.2H569.316V322.16H581.22L584.292 313.712L564.324 264.464H579.588L586.788 285.296L591.3 299.696H592.068L596.388 285.296L603.78 264.464Z" fill="white"/>
</g>
<defs>
<clipPath id="clip0_54_3">
<rect width="994" height="586" rx="14" fill="white"/>
</clipPath>
</defs>
</svg>
