<svg width="680" height="366" viewBox="0 0 680 366" fill="none" xmlns="http://www.w3.org/2000/svg">
<g clip-path="url(#clip0_54_3)">
<path d="M161.187 31.2281C168.448 14.2239 192.552 14.2239 199.813 31.2281L229.05 99.6967C232.353 107.432 239.952 112.45 248.363 112.45H327.839C349.531 112.45 356.984 141.333 337.999 151.828L284.469 181.422C275.04 186.635 271.086 198.138 275.317 208.047L297.872 260.868C305.719 279.246 285.887 297.162 268.399 287.493L190.66 244.517C184.338 241.021 176.662 241.021 170.34 244.517L92.6013 287.493C75.1128 297.162 55.2806 279.246 63.128 260.868L85.6833 208.047C89.9145 198.138 85.9601 186.635 76.5306 181.422L23.0007 151.828C4.01618 141.333 11.4685 112.45 33.161 112.45H112.637C121.048 112.45 128.647 107.432 131.95 99.6967L161.187 31.2281Z" fill="#EA91DA"/>
<path d="M193.64 206C188.52 206 184.712 204.656 182.216 201.968C179.72 199.28 178.472 195.856 178.472 191.696V167.504H165.032V156.464H173.768C175.88 156.464 177.384 156.048 178.28 155.216C179.176 154.384 179.624 152.848 179.624 150.608V138.992H192.68V156.464H211.976V167.504H192.68V194.96H211.976V206H193.64ZM250.435 150.128C247.235 150.128 244.995 149.488 243.715 148.208C242.499 146.864 241.891 145.264 241.891 143.408V140.624C241.891 138.704 242.499 137.104 243.715 135.824C244.995 134.544 247.235 133.904 250.435 133.904C253.635 133.904 255.843 134.544 257.059 135.824C258.339 137.104 258.979 138.704 258.979 140.624V143.408C258.979 145.264 258.339 146.864 257.059 148.208C255.843 149.488 253.635 150.128 250.435 150.128ZM227.587 194.96H243.331V167.504H227.587V156.464H257.539V194.96H272.131V206H227.587V194.96ZM279.005 206V156.464H290.429V163.76H291.101C291.869 161.456 292.957 159.472 294.365 157.808C295.837 156.144 297.885 155.312 300.509 155.312C305.309 155.312 308.253 158.128 309.341 163.76H309.917C310.301 162.608 310.781 161.52 311.357 160.496C311.933 159.472 312.637 158.576 313.469 157.808C314.301 157.04 315.293 156.432 316.445 155.984C317.597 155.536 318.941 155.312 320.477 155.312C327.389 155.312 330.845 160.4 330.845 170.576V206H319.421V172.016C319.421 169.712 319.005 168.112 318.173 167.216C317.405 166.256 316.381 165.776 315.101 165.776C313.885 165.776 312.829 166.192 311.933 167.024C311.101 167.792 310.685 169.008 310.685 170.672V206H299.165V172.016C299.165 169.712 298.781 168.112 298.013 167.216C297.309 166.256 296.317 165.776 295.037 165.776C293.757 165.776 292.669 166.192 291.773 167.024C290.877 167.792 290.429 169.008 290.429 170.672V206H279.005ZM363.832 207.152C355.512 207.152 349.208 204.848 344.92 200.24C340.632 195.632 338.488 189.36 338.488 181.424C338.488 177.392 339.032 173.776 340.12 170.576C341.272 167.312 342.872 164.56 344.92 162.32C347.032 160.016 349.56 158.288 352.504 157.136C355.512 155.92 358.872 155.312 362.584 155.312C366.296 155.312 369.624 155.92 372.568 157.136C375.512 158.288 378.008 159.952 380.056 162.128C382.104 164.304 383.672 166.96 384.76 170.096C385.912 173.168 386.488 176.624 386.488 180.464V184.688H352.6V185.552C352.6 188.752 353.592 191.344 355.576 193.328C357.56 195.248 360.472 196.208 364.312 196.208C367.256 196.208 369.784 195.664 371.896 194.576C374.008 193.424 375.832 191.92 377.368 190.064L385.048 198.416C383.128 200.784 380.44 202.832 376.984 204.56C373.528 206.288 369.144 207.152 363.832 207.152ZM362.68 165.488C359.608 165.488 357.144 166.448 355.288 168.368C353.496 170.224 352.6 172.752 352.6 175.952V176.72H372.568V175.952C372.568 172.688 371.672 170.128 369.88 168.272C368.152 166.416 365.752 165.488 362.68 165.488ZM398.354 194.96H409.778V167.504H398.354V156.464H423.986V170.48H424.658C425.106 168.688 425.714 166.96 426.482 165.296C427.314 163.568 428.338 162.064 429.554 160.784C430.834 159.44 432.37 158.384 434.162 157.616C435.954 156.848 438.066 156.464 440.498 156.464H445.202V169.52H434.642C431.122 169.52 428.466 170.576 426.674 172.688C424.882 174.736 423.986 177.264 423.986 180.272V194.96H440.306V206H398.354V194.96ZM462.253 183.536V169.904H492.973V183.536H462.253ZM562.343 210.992C562.343 216.24 560.135 220.112 555.719 222.608C551.303 225.104 544.359 226.352 534.887 226.352C530.151 226.352 526.247 226.064 523.175 225.488C520.103 224.976 517.639 224.208 515.783 223.184C513.991 222.16 512.711 220.944 511.943 219.536C511.239 218.128 510.887 216.592 510.887 214.928C510.887 212.112 511.719 209.968 513.383 208.496C515.047 207.088 517.383 206 520.391 205.232V204.656C518.279 204.016 516.583 203.12 515.303 201.968C514.087 200.752 513.479 199.056 513.479 196.88C513.479 194.448 514.279 192.656 515.879 191.504C517.543 190.352 519.719 189.456 522.407 188.816V188.24C519.463 186.832 517.159 184.848 515.495 182.288C513.895 179.728 513.095 176.624 513.095 172.976C513.095 170.096 513.607 167.568 514.631 165.392C515.655 163.152 517.095 161.296 518.951 159.824C520.871 158.352 523.143 157.232 525.767 156.464C528.391 155.696 531.335 155.312 534.599 155.312C537.735 155.312 540.647 155.664 543.335 156.368V153.68C543.335 151.76 544.007 150.16 545.351 148.88C546.695 147.6 548.551 146.96 550.919 146.96H559.655V157.328H547.751V158.192C550.439 159.6 552.519 161.552 553.991 164.048C555.527 166.48 556.295 169.456 556.295 172.976C556.295 175.856 555.783 178.384 554.759 180.56C553.735 182.736 552.263 184.592 550.343 186.128C548.423 187.6 546.119 188.72 543.431 189.488C540.807 190.256 537.863 190.64 534.599 190.64C533.127 190.64 531.719 190.576 530.375 190.448C529.031 190.256 527.751 190 526.535 189.68C525.831 190.064 525.223 190.544 524.711 191.12C524.263 191.696 524.039 192.432 524.039 193.328C524.039 194.096 524.231 194.704 524.615 195.152C524.999 195.6 525.511 195.952 526.151 196.208C526.855 196.4 527.655 196.528 528.551 196.592C529.447 196.656 530.375 196.688 531.335 196.688H542.663C546.183 196.688 549.191 197.04 551.687 197.744C554.183 198.448 556.231 199.44 557.831 200.72C559.431 202 560.583 203.504 561.287 205.232C561.991 206.96 562.343 208.88 562.343 210.992ZM548.903 212.048C548.903 210.768 548.391 209.744 547.367 208.976C546.343 208.272 544.391 207.92 541.511 207.92H524.519C523.239 209.008 522.599 210.352 522.599 211.952C522.599 213.488 523.239 214.736 524.519 215.696C525.863 216.72 528.103 217.232 531.239 217.232H539.591C542.855 217.232 545.223 216.784 546.695 215.888C548.167 214.992 548.903 213.712 548.903 212.048ZM534.599 181.616C537.479 181.616 539.559 180.912 540.839 179.504C542.183 178.096 542.855 176.304 542.855 174.128V171.824C542.855 169.648 542.183 167.856 540.839 166.448C539.559 165.04 537.479 164.336 534.599 164.336C531.783 164.336 529.735 165.04 528.455 166.448C527.175 167.856 526.535 169.648 526.535 171.824V174.128C526.535 176.304 527.175 178.096 528.455 179.504C529.735 180.912 531.783 181.616 534.599 181.616ZM601.09 196.976H600.514C599.426 199.792 597.698 202.192 595.33 204.176C593.026 206.16 589.89 207.152 585.922 207.152C583.554 207.152 581.378 206.768 579.394 206C577.41 205.168 575.714 203.952 574.306 202.352C572.898 200.752 571.778 198.8 570.946 196.496C570.178 194.192 569.794 191.536 569.794 188.528V156.464H584.002V186.608C584.002 193.008 586.786 196.208 592.354 196.208C593.442 196.208 594.498 196.08 595.522 195.824C596.61 195.504 597.538 195.056 598.306 194.48C599.138 193.84 599.81 193.072 600.322 192.176C600.834 191.28 601.09 190.224 601.09 189.008V156.464H615.298V206H601.09V196.976ZM662.78 156.464H677.276L653.948 213.968C652.476 217.616 650.524 220.4 648.092 222.32C645.66 224.24 642.332 225.2 638.108 225.2H628.316V214.16H640.22L643.292 205.712L623.324 156.464H638.588L645.788 177.296L650.3 191.696H651.068L655.388 177.296L662.78 156.464Z" fill="white"/>
</g>
<defs>
<clipPath id="clip0_54_3">
<rect width="680" height="366" rx="14" fill="white"/>
</clipPath>
</defs>
</svg>
